<svg width="38" height="40" viewBox="0 0 38 40" fill="none" xmlns="http://www.w3.org/2000/svg">
<path d="M1.26503 16.892H4.39303C6.22703 16.892 7.96203 16.114 9.21903 14.779C9.79703 14.165 10.456 13.598 11.187 13.098C11.333 12.998 11.487 12.921 11.636 12.828L14.365 10.915L17.782 8.51L18.046 8.229C18.993 7.219 19.676 5.986 20.038 4.639L20.824 1.701C20.975 1.125 21.493 0.733996 22.075 0.745996C25.805 1.023 26.43 7.596 23.537 14.258C23.501 14.341 23.448 14.474 23.493 14.616C23.551 14.796 23.834 14.889 24.353 14.935C24.814 14.976 31.793 15.598 33.301 15.598C34.16 15.598 30.902 34.084 30.902 35.564C30.902 37.221 29.464 38.851 27.807 38.851C27.804 38.851 13.785 39.173 11.102 38.104C10.163 37.73 9.33203 37.076 8.64403 36.267C7.37703 34.778 5.54203 33.891 3.58703 33.891H1.26503C0.568028 33.891 0.00402832 30.085 0.00402832 25.391C0.00402832 20.697 0.568028 16.892 1.26503 16.892Z" fill="url(#paint0_radial)"/>
<g opacity="0.87">
<path opacity="0.091" d="M19.243 19.218C19.116 19.955 19.227 20.655 19.512 21.257C19.891 22.059 19.845 23.012 19.234 23.655C18.66 24.258 18.306 25.071 18.304 25.971C18.304 26.003 18.304 26.035 18.305 26.067C18.317 26.546 18.429 27 18.62 27.411C18.974 28.172 18.87 29.08 18.32 29.715C18.226 29.823 18.14 29.938 18.06 30.059C17.711 30.593 17.509 31.238 17.512 31.924C17.513 32.212 17.551 32.491 17.622 32.756C17.674 32.949 17.743 33.137 17.828 33.316C17.97 33.616 18.038 33.927 18.03 34.217C18.024 34.433 17.979 34.668 17.853 34.888C17.784 35.008 17.71 35.129 17.625 35.243C17.299 35.68 17.134 36.231 17.203 36.843C17.332 37.981 18.511 38.869 19.656 38.897C19.659 38.897 19.712 38.897 19.715 38.897H23.036C24.664 38.897 25.788 37.986 25.879 36.746C25.932 36.031 25.66 35.378 25.197 34.919C26.292 34.354 27.048 33.226 27.048 31.909C27.048 30.793 26.506 29.809 25.675 29.189C25.653 29.169 25.66 29.133 25.691 29.121C26.934 28.616 27.814 27.405 27.814 25.981C27.814 24.784 27.19 23.741 26.254 23.136C26.228 23.117 26.237 23.077 26.272 23.067C27.826 22.602 28.919 21.071 28.663 19.313C28.417 17.624 29.397 15.518 27.69 15.518L23.642 15.333C23.498 15.324 23.353 15.324 23.211 15.346C21.031 15.672 19.518 17.629 19.243 19.218Z" fill="url(#paint1_linear)"/>
<path opacity="0.182" d="M19.817 19.2179C19.69 19.9549 19.801 20.6549 20.086 21.2569C20.465 22.0589 20.419 23.0119 19.808 23.6549C19.236 24.2559 18.882 25.0659 18.878 25.9629C18.878 25.9949 18.878 26.0259 18.879 26.0579C18.89 26.5349 18.999 26.9889 19.187 27.3999C19.537 28.1669 19.428 29.0759 18.871 29.7089C18.776 29.8169 18.688 29.9319 18.607 30.0559C18.255 30.5939 18.054 31.2499 18.061 31.9389C18.064 32.2289 18.104 32.5099 18.178 32.7749C18.232 32.9679 18.306 33.1589 18.395 33.3399C18.544 33.6429 18.634 33.9509 18.646 34.2239C18.655 34.4239 18.63 34.6649 18.476 34.8859C18.396 34.9999 18.318 35.1179 18.229 35.2289C17.886 35.6559 17.711 36.1989 17.776 36.8219C17.896 37.9669 19.07 38.8649 20.221 38.8949C20.227 38.8949 20.278 38.8949 20.284 38.8949H23.61C25.238 38.8949 26.362 37.9839 26.453 36.7439C26.506 36.0289 26.234 35.3759 25.771 34.9169C26.866 34.3519 27.622 33.2239 27.622 31.9069C27.622 30.7889 27.077 29.8019 26.244 29.1829C26.227 29.1639 26.236 29.1309 26.267 29.1179C27.509 28.6119 28.388 27.4019 28.388 25.9779C28.388 24.7779 27.76 23.7319 26.821 23.1279C26.801 23.1099 26.812 23.0729 26.847 23.0629C28.401 22.5979 29.494 21.0669 29.237 19.3099C28.991 17.6209 29.968 15.5219 28.261 15.5219L24.053 15.4499C23.913 15.4429 23.772 15.4439 23.635 15.4649C21.47 15.7879 20.091 17.6309 19.817 19.2179Z" fill="url(#paint2_linear)"/>
<path opacity="0.273" d="M20.39 19.218C20.263 19.955 20.374 20.655 20.659 21.257C21.038 22.059 20.992 23.012 20.381 23.655C19.81 24.254 19.458 25.062 19.451 25.955C19.451 25.987 19.451 26.018 19.452 26.049C19.462 26.524 19.568 26.978 19.753 27.389C20.1 28.162 19.986 29.071 19.421 29.703C19.325 29.811 19.235 29.927 19.153 30.052C18.799 30.594 18.599 31.261 18.608 31.953C18.612 32.244 18.654 32.527 18.732 32.794C18.789 32.988 18.867 33.181 18.96 33.364C19.116 33.67 19.228 33.975 19.261 34.231C19.285 34.415 19.282 34.663 19.098 34.885C19.009 34.993 18.925 35.107 18.832 35.216C18.472 35.633 18.287 36.168 18.347 36.802C18.458 37.954 19.627 38.862 20.783 38.895C20.792 38.895 20.841 38.896 20.851 38.896H24.183C25.811 38.896 26.935 37.985 27.026 36.745C27.079 36.03 26.807 35.377 26.344 34.918C27.439 34.353 28.195 33.225 28.195 31.908C28.195 30.787 27.648 29.799 26.811 29.18C26.799 29.162 26.81 29.131 26.841 29.119C28.082 28.613 28.961 27.403 28.961 25.98C28.961 24.777 28.33 23.729 27.387 23.126C27.372 23.109 27.386 23.076 27.42 23.065C28.973 22.6 30.066 21.069 29.81 19.312C29.564 17.623 30.537 15.53 28.83 15.53L24.463 15.571C24.327 15.566 24.191 15.568 24.058 15.588C21.909 15.904 20.664 17.633 20.39 19.218Z" fill="url(#paint3_linear)"/>
<path opacity="0.364" d="M20.964 19.218C20.837 19.955 20.948 20.655 21.233 21.257C21.612 22.059 21.566 23.012 20.955 23.655C20.386 24.253 20.034 25.057 20.025 25.947C20.025 25.978 20.025 26.01 20.025 26.041C20.034 26.514 20.138 26.967 20.319 27.379C20.662 28.158 20.543 29.068 19.971 29.698C19.873 29.806 19.782 29.923 19.699 30.05C19.343 30.596 19.143 31.274 19.156 31.969C19.162 32.262 19.206 32.547 19.287 32.814C19.346 33.009 19.429 33.205 19.526 33.39C19.689 33.699 19.822 34.001 19.876 34.24C19.914 34.408 19.934 34.662 19.72 34.886C19.622 34.988 19.532 35.099 19.434 35.205C19.057 35.613 18.862 36.138 18.918 36.785C19.02 37.944 20.183 38.861 21.346 38.897C21.358 38.897 21.406 38.898 21.418 38.898H24.755C26.383 38.898 27.507 37.987 27.598 36.747C27.651 36.032 27.379 35.379 26.916 34.92C28.011 34.355 28.767 33.227 28.767 31.91C28.767 30.787 28.218 29.797 27.378 29.178C27.371 29.161 27.384 29.133 27.414 29.12C28.655 28.614 29.533 27.404 29.533 25.981C29.533 24.775 28.899 23.725 27.952 23.122C27.943 23.106 27.958 23.076 27.993 23.065C29.546 22.6 30.639 21.069 30.383 19.312C30.137 17.623 31.106 15.537 29.399 15.537L24.872 15.692C24.74 15.688 24.608 15.692 24.48 15.711C22.348 16.019 21.238 17.635 20.964 19.218Z" fill="url(#paint4_linear)"/>
<path opacity="0.455" d="M21.537 19.218C21.41 19.955 21.521 20.655 21.806 21.257C22.185 22.059 22.139 23.012 21.528 23.655C20.961 24.251 20.609 25.052 20.599 25.938C20.599 25.969 20.599 26 20.599 26.031C20.606 26.502 20.708 26.955 20.886 27.367C21.225 28.153 21.102 29.062 20.522 29.691C20.423 29.798 20.331 29.916 20.246 30.046C19.888 30.596 19.688 31.286 19.705 31.983C19.712 32.278 19.758 32.565 19.843 32.833C19.905 33.029 19.991 33.227 20.093 33.414C20.263 33.726 20.417 34.024 20.492 34.247C20.543 34.398 20.589 34.661 20.343 34.884C20.237 34.981 20.14 35.088 20.038 35.19C19.644 35.589 19.439 36.105 19.49 36.763C19.583 37.929 20.741 38.856 21.91 38.894C21.926 38.895 21.971 38.895 21.986 38.895H25.329C26.957 38.895 28.081 37.984 28.172 36.744C28.225 36.029 27.953 35.376 27.49 34.917C28.585 34.352 29.341 33.224 29.341 31.907C29.341 30.781 28.789 29.789 27.946 29.171C27.944 29.155 27.959 29.129 27.989 29.117C29.229 28.61 30.107 27.401 30.107 25.979C30.107 24.77 29.47 23.718 28.519 23.116C28.516 23.101 28.533 23.074 28.567 23.064C30.12 22.599 31.212 21.068 30.956 19.311C30.71 17.622 31.676 15.542 29.969 15.542L25.282 15.81C25.154 15.808 25.026 15.813 24.903 15.831C22.788 16.135 21.811 17.636 21.537 19.218Z" fill="url(#paint5_linear)"/>
<path opacity="0.545" d="M22.111 19.218C21.984 19.955 22.095 20.655 22.38 21.257C22.759 22.059 22.713 23.012 22.102 23.655C21.536 24.249 21.185 25.047 21.173 25.93C21.173 25.961 21.173 25.992 21.173 26.023C21.179 26.492 21.278 26.945 21.453 27.357C21.788 28.149 21.661 29.059 21.073 29.686C20.972 29.793 20.879 29.912 20.793 30.043C20.433 30.597 20.234 31.298 20.254 31.998C20.263 32.295 20.311 32.583 20.399 32.852C20.464 33.048 20.554 33.249 20.66 33.438C20.837 33.753 21.01 34.047 21.109 34.254C21.173 34.389 21.245 34.661 20.967 34.883C20.853 34.975 20.749 35.078 20.643 35.177C20.231 35.566 20.017 36.074 20.064 36.743C20.148 37.916 21.301 38.853 22.475 38.894C22.494 38.895 22.537 38.895 22.556 38.895H25.904C27.532 38.895 28.656 37.984 28.747 36.744C28.8 36.029 28.528 35.376 28.065 34.917C29.16 34.352 29.916 33.224 29.916 31.907C29.916 30.779 29.362 29.785 28.516 29.167C28.519 29.152 28.536 29.128 28.566 29.116C29.805 28.609 30.683 27.4 30.683 25.978C30.683 24.766 30.043 23.712 29.088 23.11C29.091 23.096 29.11 23.072 29.143 23.062C30.696 22.597 31.788 21.066 31.532 19.309C31.286 17.62 32.248 15.547 30.541 15.547L25.695 15.929C25.571 15.929 25.448 15.935 25.329 15.952C23.227 16.251 22.384 17.638 22.111 19.218Z" fill="url(#paint6_linear)"/>
<path opacity="0.636" d="M22.685 19.218C22.558 19.955 22.669 20.655 22.954 21.257C23.333 22.059 23.287 23.012 22.676 23.655C22.112 24.247 21.761 25.042 21.747 25.922C21.747 25.953 21.746 25.983 21.747 26.014C21.752 26.48 21.848 26.933 22.02 27.346C22.351 28.144 22.219 29.055 21.624 29.681C21.522 29.788 21.427 29.908 21.34 30.041C20.978 30.599 20.779 31.311 20.802 32.013C20.812 32.312 20.862 32.602 20.954 32.871C21.021 33.068 21.116 33.272 21.226 33.462C21.41 33.78 21.602 34.071 21.724 34.261C21.8 34.38 21.9 34.661 21.59 34.882C21.468 34.969 21.356 35.067 21.247 35.164C20.818 35.543 20.594 36.042 20.636 36.723C20.711 37.903 21.858 38.85 23.039 38.893C23.061 38.894 23.102 38.894 23.124 38.894H26.478C28.106 38.894 29.23 37.983 29.321 36.743C29.374 36.028 29.102 35.375 28.639 34.916C29.734 34.351 30.49 33.223 30.49 31.906C30.49 30.776 29.933 29.78 29.084 29.162C29.092 29.148 29.111 29.127 29.141 29.115C30.38 28.608 31.256 27.399 31.256 25.978C31.256 24.763 30.613 23.707 29.654 23.106C29.662 23.093 29.684 23.072 29.717 23.062C31.27 22.596 32.362 21.066 32.105 19.309C31.859 17.62 32.817 15.553 31.11 15.553L26.104 16.048C25.984 16.05 25.865 16.057 25.751 16.074C23.666 16.366 22.957 17.64 22.685 19.218Z" fill="url(#paint7_linear)"/>
<path opacity="0.727" d="M23.258 19.2179C23.131 19.9549 23.242 20.6549 23.527 21.2569C23.906 22.0589 23.86 23.0119 23.249 23.6549C22.687 24.2449 22.336 25.0369 22.32 25.9139C22.319 25.9439 22.319 25.9749 22.32 26.0059C22.324 26.4699 22.417 26.9229 22.586 27.3359C22.913 28.1399 22.777 29.0509 22.174 29.6759C22.071 29.7829 21.974 29.9029 21.886 30.0389C21.522 30.6009 21.323 31.3239 21.35 32.0289C21.361 32.3289 21.414 32.6219 21.509 32.8919C21.579 33.0899 21.678 33.2959 21.792 33.4889C21.983 33.8099 22.192 34.0979 22.339 34.2709C22.427 34.3739 22.555 34.6659 22.212 34.8839C22.082 34.9669 21.963 35.0599 21.85 35.1539C21.403 35.5219 21.17 36.0139 21.208 36.7069C21.274 37.8939 22.416 38.8509 23.602 38.8969C23.627 38.8979 23.667 38.8989 23.692 38.8989H27.051C28.679 38.8989 29.803 37.9879 29.894 36.7479C29.947 36.0329 29.675 35.3799 29.212 34.9209C30.307 34.3559 31.063 33.2279 31.063 31.9109C31.063 30.7779 30.504 29.7799 29.652 29.1629C29.665 29.1499 29.686 29.1309 29.715 29.1189C30.953 28.6119 31.829 27.4029 31.829 25.9819C31.829 24.7639 31.183 23.7049 30.22 23.1059C30.234 23.0939 30.258 23.0759 30.29 23.0669C31.842 22.6009 32.934 21.0709 32.678 19.3139C32.432 17.6249 33.387 15.5649 31.68 15.5649L26.515 16.1729C26.399 16.1769 26.285 16.1849 26.175 16.2009C24.105 16.4819 23.531 17.6419 23.258 19.2179Z" fill="url(#paint8_linear)"/>
<path opacity="0.818" d="M23.832 19.218C23.705 19.955 23.816 20.655 24.101 21.257C24.48 22.059 24.434 23.012 23.823 23.655C23.263 24.243 22.913 25.032 22.894 25.906C22.893 25.936 22.893 25.967 22.893 25.997C22.895 26.459 22.987 26.912 23.152 27.325C23.476 28.135 23.334 29.047 22.724 29.67C22.619 29.777 22.521 29.898 22.432 30.035C22.066 30.601 21.868 31.335 21.898 32.043C21.911 32.345 21.965 32.639 22.064 32.91C22.137 33.109 22.239 33.317 22.359 33.512C22.557 33.836 22.782 34.123 22.956 34.277C23.055 34.365 23.212 34.667 22.836 34.881C22.698 34.96 22.572 35.048 22.455 35.138C21.99 35.497 21.749 35.979 21.781 36.684C21.839 37.878 22.974 38.845 24.167 38.893C24.195 38.894 24.233 38.895 24.261 38.895H27.626C29.254 38.895 30.378 37.984 30.469 36.744C30.522 36.029 30.25 35.376 29.787 34.917C30.882 34.352 31.638 33.224 31.638 31.907C31.638 30.772 31.077 29.772 30.221 29.155C30.239 29.143 30.263 29.127 30.291 29.115C31.528 28.607 32.404 27.399 32.404 25.979C32.404 24.758 31.755 23.697 30.788 23.098C30.808 23.087 30.834 23.073 30.866 23.063C32.418 22.597 33.51 21.067 33.254 19.31C33.008 17.621 33.959 15.567 32.252 15.567L26.927 16.289C26.815 16.295 26.705 16.304 26.6 16.319C24.544 16.598 24.104 17.644 23.832 19.218Z" fill="url(#paint9_linear)"/>
<path opacity="0.909" d="M24.406 19.218C24.279 19.955 24.39 20.655 24.675 21.257C25.054 22.059 25.008 23.012 24.397 23.655C23.838 24.242 23.489 25.027 23.468 25.898C23.467 25.928 23.467 25.958 23.467 25.988C23.468 26.448 23.557 26.9 23.719 27.314C24.039 28.13 23.893 29.043 23.275 29.664C23.169 29.771 23.07 29.892 22.98 30.032C22.612 30.601 22.414 31.347 22.447 32.058C22.461 32.362 22.518 32.658 22.62 32.929C22.695 33.128 22.802 33.34 22.926 33.536C23.131 33.863 23.373 34.15 23.572 34.284C23.682 34.358 23.869 34.67 23.459 34.88C23.313 34.955 23.18 35.037 23.059 35.125C22.577 35.474 22.326 35.948 22.354 36.664C22.403 37.865 23.533 38.844 24.732 38.892C24.763 38.893 24.799 38.894 24.83 38.894H28.2C29.828 38.894 30.952 37.983 31.043 36.743C31.096 36.028 30.824 35.375 30.361 34.916C31.456 34.351 32.212 33.223 32.212 31.906C32.212 30.768 31.648 29.767 30.79 29.15C30.813 29.138 30.839 29.125 30.867 29.113C32.104 28.605 32.979 27.397 32.979 25.977C32.979 24.753 32.326 23.69 31.356 23.092C31.381 23.083 31.41 23.071 31.441 23.061C32.993 22.595 34.084 21.065 33.828 19.309C33.582 17.62 34.53 15.573 32.823 15.573L27.338 16.408C27.229 16.416 27.125 16.426 27.024 16.44C24.984 16.714 24.677 17.646 24.406 19.218Z" fill="url(#paint10_linear)"/>
<path d="M33.552 25.9801C33.552 24.7531 32.896 23.6881 31.922 23.0901C33.523 22.6581 34.662 21.1021 34.401 19.3111C34.155 17.6221 35.099 15.5811 33.392 15.5811L27.748 16.5291C25.439 16.7521 25.264 17.5731 24.98 19.2181C24.853 19.9551 24.964 20.6551 25.249 21.2571C25.628 22.0591 25.582 23.0121 24.971 23.6551C24.395 24.2601 24.041 25.0761 24.041 25.9791C24.041 26.4371 24.127 26.8891 24.286 27.3041C24.602 28.1261 24.452 29.0391 23.826 29.6591C23.718 29.7661 23.618 29.8881 23.527 30.0301C22.998 30.8491 22.823 32.0421 23.176 32.9501C23.383 33.4831 23.828 34.1141 24.188 34.2931C24.31 34.3531 24.525 34.6761 24.082 34.8811C23.312 35.2361 22.896 35.7361 22.926 36.6461C22.967 37.8881 24.155 38.8961 25.398 38.8961H28.774C30.402 38.8961 31.526 37.9851 31.617 36.7451C31.67 36.0301 31.398 35.3771 30.935 34.9181C32.03 34.3531 32.786 33.2251 32.786 31.9081C32.786 30.7681 32.22 29.7641 31.358 29.1481C32.638 28.6611 33.552 27.4311 33.552 25.9801Z" fill="url(#paint11_linear)"/>
</g>
<g opacity="0.24">
<path opacity="0.091" d="M3.083 32.073H5.404C7.36 32.073 9.194 32.959 10.461 34.449C11.149 35.258 11.98 35.912 12.919 36.286C14.152 36.777 17.781 36.974 21.339 37.044C21.688 37.051 22.037 37.056 22.383 37.061C24.623 37.09 26.722 37.074 27.98 37.059C29.053 37.047 29.745 37.007 29.794 36.966C30.093 36.946 30.378 36.86 30.649 36.744C30.733 36.445 30.736 36.121 30.711 35.772C30.697 35.572 30.716 35.023 30.726 34.243C29.426 34.259 27.521 34.271 25.491 34.247C24.516 34.236 23.512 34.216 22.531 34.185C20.171 34.109 17.953 33.964 16.625 33.7C16.228 33.62 15.899 33.528 15.653 33.424C15.078 33.181 14.544 32.835 14.06 32.413C13.756 32.147 13.467 31.857 13.195 31.549C12.257 30.486 11.025 29.746 9.67 29.437C9.202 29.318 8.563 29.256 8.069 29.256H7.459C7.434 29.256 5.854 29.203 5.836 29.112C5.28 28.972 4.817 26.349 4.683 22.828C4.656 22.09 4.643 21.32 4.646 20.531C4.652 19.241 4.705 18.041 4.787 16.965C4.572 16.963 4.355 16.953 4.137 16.93C4.14 16.916 3.769 16.903 3.773 16.891H3.376C3.357 16.891 2.308 16.922 2.293 16.978C2.009 18.516 1.826 20.871 1.823 23.517C1.823 23.713 1.824 23.907 1.825 24.1C1.865 28.549 2.413 32.073 3.083 32.073Z" fill="url(#paint12_linear)"/>
<path opacity="0.182" d="M2.90101 32.255H5.22201C7.17801 32.255 9.01201 33.141 10.279 34.631C10.967 35.44 11.798 36.094 12.737 36.468C13.981 36.963 17.664 37.159 21.251 37.228C21.605 37.235 21.958 37.24 22.307 37.245C24.659 37.274 26.83 37.252 27.962 37.239C28.997 37.228 29.684 37.164 29.78 37.083C30.075 37.043 30.354 36.939 30.617 36.806C30.646 36.567 30.57 36.305 30.519 35.981C30.491 35.803 30.455 35.308 30.354 34.608C29.045 34.624 27.127 34.636 25.086 34.612C24.103 34.6 23.092 34.58 22.107 34.548C19.708 34.469 17.464 34.319 16.171 34.042C15.781 33.957 15.454 33.857 15.202 33.745C14.629 33.489 14.097 33.133 13.617 32.7C13.315 32.427 13.023 32.135 12.744 31.831C11.784 30.781 10.53 30.062 9.15901 29.784C8.73801 29.677 7.99301 29.621 7.54901 29.621H6.93701C6.88701 29.621 5.44001 29.515 5.40301 29.334C4.87101 29.054 4.43301 26.44 4.31201 22.986C4.28801 22.236 4.27801 21.46 4.28401 20.672C4.29601 19.364 4.35601 18.154 4.44701 17.084C4.25801 17.052 4.06901 17.016 3.87701 16.971C3.88301 16.943 3.55301 16.918 3.56001 16.894H3.16401C3.12601 16.894 2.16301 16.957 2.13101 17.067C1.83701 18.584 1.64601 20.961 1.64001 23.645C1.64001 23.841 1.64001 24.037 1.64201 24.232C1.67801 28.703 2.22801 32.255 2.90101 32.255Z" fill="url(#paint13_linear)"/>
<path opacity="0.273" d="M2.71906 32.437H5.04006C6.99606 32.437 8.83006 33.323 10.0971 34.813C10.7851 35.622 11.6161 36.276 12.5551 36.65C13.8101 37.15 17.5481 37.345 21.1631 37.411C21.5211 37.418 21.8781 37.423 22.2321 37.427C24.6951 37.455 26.9391 37.429 27.9451 37.417C28.9411 37.408 29.6251 37.319 29.7681 37.197C30.0591 37.137 30.3321 37.016 30.5871 36.865C30.5621 36.687 30.4801 36.464 30.3291 36.187C30.3291 36.027 30.1961 35.591 29.9841 34.969C28.6671 34.985 26.7361 34.997 24.6831 34.972C23.6931 34.96 22.6751 34.939 21.6841 34.907C19.2461 34.826 16.9761 34.672 15.7191 34.38C15.3361 34.291 15.0101 34.183 14.7531 34.062C14.1821 33.794 13.6521 33.427 13.1751 32.983C12.8751 32.703 12.5801 32.41 12.2951 32.109C11.3121 31.073 10.0381 30.374 8.65106 30.127C8.27706 30.032 7.42706 29.982 7.03206 29.982H6.41806C6.34306 29.982 5.02906 29.822 4.97306 29.551C4.46406 29.131 4.05206 26.527 3.94506 23.14C3.92306 22.378 3.91706 21.596 3.92606 20.809C3.94406 19.483 4.01106 18.262 4.11006 17.199C3.94806 17.138 3.78506 17.075 3.62106 17.008C3.63006 16.966 3.34106 16.928 3.35006 16.892H2.95306C2.89606 16.892 2.01806 16.986 1.97006 17.152C1.66706 18.648 1.46706 21.048 1.45806 23.769C1.45706 23.966 1.45806 24.163 1.45906 24.359C1.49206 28.856 2.04406 32.437 2.71906 32.437Z" fill="url(#paint14_linear)"/>
<path opacity="0.364" d="M2.53805 32.619H4.85905C6.81505 32.619 8.64905 33.505 9.91605 34.995C10.604 35.804 11.435 36.458 12.374 36.832C13.64 37.336 17.432 37.53 21.075 37.595C21.438 37.601 21.799 37.607 22.156 37.611C24.731 37.639 27.046 37.608 27.927 37.598C28.884 37.59 29.564 37.477 29.755 37.315C30.042 37.235 30.31 37.096 30.556 36.928C30.477 36.81 30.34 36.64 30.138 36.397C30.138 36.257 29.936 35.877 29.614 35.335C28.289 35.351 26.344 35.363 24.28 35.338C23.283 35.326 22.257 35.305 21.261 35.271C18.783 35.187 16.488 35.027 15.267 34.723C14.891 34.629 14.567 34.513 14.304 34.383C13.735 34.102 13.207 33.724 12.734 33.27C12.435 32.983 12.138 32.688 11.846 32.391C10.841 31.368 9.54605 30.69 8.14305 30.474C7.81505 30.391 6.86005 30.347 6.51405 30.347H5.90005C5.80105 30.347 4.61905 30.134 4.54405 29.772C4.05905 29.211 3.67205 26.618 3.57805 23.297C3.55905 22.523 3.55605 21.735 3.56905 20.948C3.59305 19.604 3.66705 18.373 3.77405 17.315C3.63805 17.224 3.50205 17.135 3.36505 17.046C3.37705 16.991 3.12805 16.939 3.14105 16.892H2.74105C2.66505 16.892 1.87205 17.017 1.80805 17.238C1.49605 18.713 1.28705 21.136 1.27605 23.894C1.27505 24.092 1.27505 24.29 1.27705 24.487C1.30605 29.01 1.85905 32.619 2.53805 32.619Z" fill="url(#paint15_linear)"/>
<path opacity="0.455" d="M2.35596 32.8009H4.67696C6.63296 32.8009 8.46696 33.6869 9.73396 35.1769C10.422 35.9859 11.253 36.6399 12.192 37.0139C13.469 37.5219 17.316 37.7149 20.987 37.7779C21.354 37.7839 21.72 37.7889 22.081 37.7929C24.767 37.8199 27.155 37.7849 27.91 37.7759C28.829 37.7689 29.504 37.6319 29.742 37.4289C30.025 37.3289 30.287 37.1729 30.525 36.9879C30.391 36.9299 30.199 36.8119 29.948 36.6039C29.948 36.4839 29.677 36.1609 29.244 35.6979C27.91 35.7139 25.952 35.7259 23.876 35.6999C22.871 35.6869 21.839 35.6659 20.837 35.6319C18.32 35.5449 15.999 35.3799 14.813 35.0629C14.444 34.9639 14.121 34.8409 13.853 34.7019C13.286 34.4089 12.76 34.0199 12.291 33.5559C11.994 33.2619 11.695 32.9659 11.396 32.6719C10.368 31.6619 9.05196 31.0049 7.63296 30.8199C7.35196 30.7489 6.29097 30.7109 5.99497 30.7109H5.37796C5.25396 30.7109 4.20496 30.4449 4.11096 29.9929C3.64896 29.2919 3.28196 26.7079 3.20796 23.4549C3.18997 22.6689 3.19196 21.8749 3.20796 21.0889C3.23796 19.7259 3.31896 18.4849 3.43496 17.4339C3.32497 17.3129 3.21596 17.1979 3.10696 17.0859C3.12196 17.0169 2.91396 16.9519 2.92996 16.8929H2.53096C2.43596 16.8929 1.72796 17.0489 1.64896 17.3259C1.32696 18.7789 1.11096 21.2249 1.09596 24.0209C1.09496 24.2199 1.09496 24.4189 1.09596 24.6179C1.11996 29.1639 1.67496 32.8009 2.35596 32.8009Z" fill="url(#paint16_linear)"/>
<path opacity="0.545" d="M2.17396 32.982H4.49496C6.45096 32.982 8.28496 33.868 9.55196 35.358C10.24 36.167 11.071 36.821 12.01 37.195C13.297 37.708 17.2 37.9 20.899 37.961C21.271 37.967 21.641 37.972 22.005 37.976C24.802 38.003 27.263 37.961 27.893 37.955C28.773 37.947 29.411 37.743 29.73 37.545C29.988 37.385 30.266 37.251 30.495 37.049C30.307 37.052 30.06 36.985 29.758 36.812C29.758 36.712 29.418 36.445 28.875 36.062C27.533 36.078 25.561 36.09 23.474 36.064C22.462 36.051 21.423 36.029 20.415 35.994C17.859 35.904 15.513 35.733 14.362 35.403C14 35.299 13.679 35.168 13.406 35.021C12.84 34.716 12.317 34.316 11.851 33.841C11.556 33.54 11.254 33.242 10.949 32.952C9.89896 31.955 8.56196 31.319 7.12696 31.164C6.89296 31.105 5.72596 31.074 5.47996 31.074H4.86196C4.71296 31.074 3.79696 30.755 3.68396 30.212C3.24596 29.371 2.90396 26.797 2.84296 23.61C2.82796 22.812 2.83196 22.012 2.85196 21.226C2.88796 19.845 2.97696 18.594 3.09996 17.549C3.01696 17.399 2.93396 17.257 2.85196 17.123C2.87096 17.04 2.70296 16.963 2.72196 16.892H2.31996C2.20596 16.892 1.58296 17.08 1.48796 17.412C1.15696 18.844 0.931958 21.313 0.913958 24.147C0.912958 24.347 0.912958 24.547 0.913958 24.747C0.933958 29.317 1.49096 32.982 2.17396 32.982Z" fill="url(#paint17_linear)"/>
<path opacity="0.636" d="M1.99198 33.164H4.31298C6.26898 33.164 8.10298 34.05 9.36998 35.54C10.058 36.349 10.889 37.003 11.828 37.377C13.126 37.894 17.083 38.085 20.811 38.145C21.187 38.151 21.561 38.156 21.93 38.159C24.839 38.186 27.372 38.139 27.876 38.134C28.718 38.127 29.353 37.904 29.718 37.66C29.975 37.488 30.244 37.328 30.465 37.109C30.223 37.172 29.92 37.158 29.568 37.019C29.568 36.939 29.159 36.729 28.505 36.425C27.155 36.441 25.169 36.453 23.071 36.426C22.051 36.413 21.005 36.39 19.993 36.354C17.398 36.262 15.026 36.084 13.91 35.742C13.555 35.633 13.235 35.495 12.957 35.339C12.393 35.023 11.872 34.61 11.41 34.125C11.117 33.817 10.812 33.518 10.5 33.232C9.42798 32.248 8.06998 31.633 6.61898 31.509C6.43198 31.462 5.15998 31.437 4.96198 31.437H4.34198C4.16798 31.437 3.38398 31.064 3.25298 30.431C2.83898 29.45 2.52798 26.886 2.47498 23.765C2.46398 22.954 2.46998 22.149 2.49298 21.364C2.53498 19.965 2.63098 18.704 2.76198 17.665C2.70498 17.485 2.64898 17.317 2.59498 17.161C2.61698 17.064 2.48898 16.974 2.51198 16.891H2.10898C1.97598 16.891 1.43798 17.11 1.32698 17.497C0.985982 18.908 0.752982 21.4 0.732982 24.271C0.731982 24.472 0.730982 24.673 0.731982 24.875C0.747982 29.471 1.30598 33.164 1.99198 33.164Z" fill="url(#paint18_linear)"/>
<path opacity="0.727" d="M1.80995 33.3459H4.13095C6.08695 33.3459 7.92095 34.2319 9.18795 35.7219C9.87595 36.5309 10.707 37.1849 11.646 37.5589C12.955 38.0799 16.9669 38.2699 20.722 38.3279C21.103 38.3339 21.481 38.3379 21.853 38.3419C24.873 38.3679 27.479 38.3169 27.857 38.3139C28.66 38.3079 29.2959 38.0679 29.7029 37.7769C29.959 37.5939 30.219 37.4079 30.4319 37.1709C30.136 37.2939 29.778 37.3319 29.375 37.2279C29.375 37.1679 28.8969 37.0139 28.1329 36.7889C26.774 36.8049 24.775 36.8169 22.666 36.7889C21.639 36.7749 20.5859 36.7519 19.5679 36.7159C16.9329 36.6209 14.5359 36.4369 13.4559 36.0829C13.108 35.9689 12.79 35.8239 12.5059 35.6589C11.943 35.3309 11.4249 34.9069 10.966 34.4109C10.6749 34.0959 10.368 33.7949 10.049 33.5129C8.95395 32.5419 7.57495 31.9479 6.10895 31.8549C5.96895 31.8189 4.59095 31.8009 4.44295 31.8009H3.82295C3.62395 31.8009 2.97295 31.3749 2.82295 30.6519C2.43195 29.5309 2.14695 26.9759 2.10695 23.9229C2.09895 23.0999 2.10795 22.2879 2.13395 21.5049C2.18195 20.0879 2.28495 18.8159 2.42395 17.7829C2.39295 17.5739 2.36395 17.3789 2.33695 17.2009C2.36195 17.0899 2.27495 16.9869 2.30095 16.8929H1.89795C1.74595 16.8929 1.29295 17.1429 1.16595 17.5859C0.81595 18.9759 0.57395 21.4909 0.55095 24.3989C0.54895 24.5999 0.54895 24.8029 0.54895 25.0059C0.56195 29.6249 1.12195 33.3459 1.80995 33.3459Z" fill="url(#paint19_linear)"/>
<path opacity="0.818" d="M1.62895 33.528H3.94995C5.90595 33.528 7.73995 34.414 9.00695 35.904C9.69495 36.713 10.5259 37.367 11.4649 37.741C12.7849 38.267 16.8509 38.455 20.6349 38.512C21.0199 38.518 21.4029 38.522 21.7789 38.525C24.9109 38.551 27.5889 38.495 27.8409 38.493C28.6049 38.487 29.2429 38.233 29.6919 37.892C29.9489 37.697 30.1989 37.485 30.4039 37.232C30.0529 37.416 29.6409 37.505 29.1869 37.436C29.1859 37.396 28.6399 37.299 27.7649 37.153C26.3979 37.169 24.3859 37.181 22.2649 37.153C21.2309 37.139 20.1709 37.116 19.1469 37.078C16.4729 36.98 14.0509 36.79 13.0059 36.424C12.6649 36.305 12.3479 36.153 12.0589 35.979C11.4969 35.64 10.9819 35.203 10.5269 34.697C10.2369 34.375 9.92795 34.073 9.60295 33.794C8.48595 32.836 7.08595 32.263 5.60295 32.201C5.50895 32.177 4.02595 32.165 3.92795 32.165H3.30395C3.07995 32.165 2.56195 31.686 2.39295 30.872C2.02595 29.611 1.76595 27.066 1.73895 24.079C1.73395 23.244 1.74595 22.426 1.77495 21.643C1.82895 20.208 1.93895 18.926 2.08695 17.899C2.08295 17.66 2.08095 17.439 2.08095 17.238C2.10895 17.113 2.06295 16.998 2.09195 16.891H1.68695C1.51595 16.891 1.14795 17.172 1.00595 17.67C0.645946 19.039 0.395946 21.576 0.369946 24.522C0.367946 24.724 0.366946 24.928 0.367946 25.133C0.375946 29.779 0.936946 33.528 1.62895 33.528Z" fill="url(#paint20_linear)"/>
<path opacity="0.909" d="M1.44706 33.71H3.76806C5.72406 33.71 7.55806 34.596 8.82506 36.086C9.51306 36.895 10.3441 37.549 11.2831 37.923C12.6141 38.453 16.7351 38.641 20.5471 38.695C20.9371 38.701 21.3231 38.705 21.7031 38.708C24.9461 38.733 27.6961 38.673 27.8231 38.672C28.5491 38.667 29.1911 38.401 29.6791 38.007C29.9361 37.799 30.1761 37.563 30.3731 37.292C29.9681 37.536 29.5001 37.678 28.9971 37.643C28.9961 37.623 28.3811 37.582 27.3961 37.516C26.0211 37.532 23.9951 37.544 21.8631 37.515C20.8211 37.501 19.7541 37.477 18.7251 37.439C16.0121 37.339 13.5651 37.14 12.5541 36.764C12.2201 36.639 11.9041 36.482 11.6101 36.297C11.0491 35.948 10.5371 35.498 10.0851 34.982C9.79706 34.653 9.48506 34.349 9.15306 34.074C8.01306 33.129 6.59206 32.577 5.09406 32.546C5.04706 32.534 3.45906 32.528 3.40906 32.528H2.78406C2.53606 32.528 2.15006 31.996 1.96206 31.091C1.61806 29.689 1.38406 27.155 1.37106 24.235C1.36806 23.388 1.38406 22.564 1.41606 21.782C1.47606 20.328 1.59306 19.036 1.74906 18.016C1.77106 17.747 1.79606 17.5 1.82306 17.277C1.85406 17.139 1.84806 17.01 1.88106 16.892H1.47606C1.28606 16.892 1.00306 17.205 0.845059 17.758C0.476059 19.106 0.218059 21.666 0.188059 24.649C0.186059 24.852 0.185059 25.057 0.185059 25.263C0.190059 29.932 0.753059 33.71 1.44706 33.71Z" fill="url(#paint21_linear)"/>
<path d="M28.806 37.851C28.805 37.851 25.299 37.931 21.459 37.878C17.619 37.825 13.443 37.638 12.101 37.104C11.162 36.73 10.331 36.076 9.64303 35.267C8.37603 33.778 6.54103 32.891 4.58603 32.891H2.26503C1.56803 32.891 1.00403 29.085 1.00403 24.391C1.00403 21.142 1.27503 18.322 1.67203 16.891H1.26503C0.568028 16.891 0.00402832 20.697 0.00402832 25.391C0.00402832 30.085 0.569028 33.891 1.26503 33.891H3.58603C5.54203 33.891 7.37603 34.777 8.64303 36.267C9.33103 37.076 10.162 37.73 11.101 38.104C12.443 38.638 16.618 38.825 20.459 38.878C24.3 38.931 27.805 38.851 27.806 38.851C28.833 38.851 29.774 38.223 30.342 37.353C29.883 37.657 29.36 37.851 28.806 37.851Z" fill="#E5A015"/>
</g>
<path d="M34.0841 35.259C33.8201 33.327 32.0401 31.975 30.1081 32.238C29.3481 32.342 28.6831 32.686 28.1651 33.176L25.1991 34.506C25.0791 34.499 24.9581 34.499 24.8351 34.517C23.7121 34.682 22.9371 35.875 23.1041 37.181C23.2591 38.396 24.1751 39.269 25.2061 39.253L30.8061 39.243C30.8921 39.238 30.9771 39.246 31.0641 39.234C32.9961 38.971 34.3481 37.191 34.0841 35.259Z" fill="url(#paint22_radial)"/>
<path d="M36.606 30.13C36.332 27.872 34.278 26.264 32.02 26.538C31.103 26.649 30.303 27.064 29.683 27.657L25.119 28.851C23.804 29.126 22.893 30.52 23.066 32.069C23.235 33.58 24.375 34.676 25.672 34.658L32.648 34.723C32.77 34.719 32.889 34.731 33.012 34.716C35.272 34.442 36.881 32.389 36.606 30.13Z" fill="url(#paint23_radial)"/>
<path d="M37.775 24.183C37.478 21.928 35.408 20.341 33.153 20.638C33.025 20.655 26.179 22.995 26.179 22.995C24.835 23.253 23.911 24.677 24.104 26.246C24.281 27.682 25.332 28.742 26.551 28.816C26.551 28.816 34.058 28.828 34.23 28.805C36.485 28.508 38.072 26.439 37.775 24.183Z" fill="url(#paint24_radial)"/>
<path d="M37.969 18.713C37.73 16.734 35.972 15.32 34.003 15.471C34.003 15.471 33.74 15.5 33.687 15.509L26.917 16.628C25.619 16.928 24.726 18.383 24.903 20.005C25.075 21.584 26.197 22.738 27.479 22.749L34.333 22.849C34.466 22.847 34.596 22.857 34.731 22.841C36.765 22.596 38.215 20.748 37.969 18.713Z" fill="url(#paint25_radial)"/>
<path opacity="0.59" d="M14.367 26.5921C10.402 25.7901 6.76696 27.2181 6.24896 29.7801C5.73096 32.3421 8.52496 35.0701 12.491 35.8711C16.457 36.6721 20.091 35.2451 20.609 32.6831C21.127 30.1211 18.333 27.3941 14.367 26.5921Z" fill="url(#paint26_radial)"/>
<path opacity="0.59" d="M22.384 14.289C22.144 16.136 21.563 18.009 20.665 19.763C20.113 20.84 19.438 21.881 18.666 22.824C17.37 24.407 15.74 25.792 13.888 26.697C13.262 27.003 12.606 27.244 11.935 27.427C11.322 27.593 10.532 27.854 9.89098 27.762C9.70998 27.761 9.52998 27.719 9.37998 27.614C9.24998 27.522 9.15198 27.385 9.13098 27.225C9.12898 27.212 9.12798 27.198 9.12698 27.185C9.10998 26.843 9.43698 26.549 9.88498 26.531C13.59 26.333 17.384 23.464 19.567 19.202C20.462 17.454 21.012 15.585 21.199 13.761L22.384 14.289Z" fill="url(#paint27_linear)"/>
<path opacity="0.72" d="M15.37 23.361C12.335 25.94 8.64097 26.579 7.11797 24.788C5.59597 22.997 6.82197 19.454 9.85697 16.875C12.892 14.296 16.586 13.657 18.109 15.448C19.632 17.239 18.405 20.782 15.37 23.361Z" fill="url(#paint28_radial)"/>
<ellipse opacity="0.5" cx="31.522" cy="19.251" rx="5.925" ry="2.58" fill="url(#paint29_radial)"/>
<ellipse opacity="0.5" cx="30.566" cy="26.1441" rx="5.925" ry="2.261" fill="url(#paint30_radial)"/>
<ellipse opacity="0.5" cx="29.513" cy="31.984" rx="5.925" ry="2.261" fill="url(#paint31_radial)"/>
<ellipse opacity="0.5" cx="28.184" cy="36.896" rx="4.245" ry="1.62" fill="url(#paint32_radial)"/>
<defs>
<radialGradient id="paint0_radial" cx="0" cy="0" r="1" gradientUnits="userSpaceOnUse" gradientTransform="translate(12.311 17.6081) scale(22.062 25.169)">
<stop stop-color="#FFE16E"/>
<stop offset="0.629" stop-color="#FFD226"/>
<stop offset="0.75" stop-color="#FDCD23"/>
<stop offset="0.899" stop-color="#F6BD1B"/>
<stop offset="0.999" stop-color="#F0AF13"/>
</radialGradient>
<linearGradient id="paint1_linear" x1="26.3274" y1="17.1813" x2="17.5006" y2="17.8023" gradientUnits="userSpaceOnUse">
<stop stop-color="#F4BA22" stop-opacity="0.409"/>
<stop offset="1" stop-color="#FBCE32"/>
</linearGradient>
<linearGradient id="paint2_linear" x1="26.8669" y1="13.6434" x2="15.7568" y2="15.3708" gradientUnits="userSpaceOnUse">
<stop stop-color="#F2B721" stop-opacity="0.468"/>
<stop offset="1" stop-color="#F9C930"/>
</linearGradient>
<linearGradient id="paint3_linear" x1="26.1039" y1="11.8544" x2="14.0404" y2="15.2457" gradientUnits="userSpaceOnUse">
<stop stop-color="#F0B320" stop-opacity="0.527"/>
<stop offset="1" stop-color="#F6C32D"/>
</linearGradient>
<linearGradient id="paint4_linear" x1="24.2251" y1="12.7008" x2="12.4067" y2="19.0055" gradientUnits="userSpaceOnUse">
<stop stop-color="#EEB01F" stop-opacity="0.586"/>
<stop offset="1" stop-color="#F3BE2A"/>
</linearGradient>
<linearGradient id="paint5_linear" x1="22.1077" y1="16.3498" x2="13.8581" y2="30.3351" gradientUnits="userSpaceOnUse">
<stop stop-color="#ECAC1E" stop-opacity="0.645"/>
<stop offset="1" stop-color="#F0B827"/>
</linearGradient>
<linearGradient id="paint6_linear" x1="20.4415" y1="21.6019" x2="28.6921" y2="35.5853" gradientUnits="userSpaceOnUse">
<stop stop-color="#EAA91C" stop-opacity="0.705"/>
<stop offset="1" stop-color="#EEB325"/>
</linearGradient>
<linearGradient id="paint7_linear" x1="19.1876" y1="26.9546" x2="31.5316" y2="33.5443" gradientUnits="userSpaceOnUse">
<stop stop-color="#E8A51B" stop-opacity="0.764"/>
<stop offset="1" stop-color="#EBAD22"/>
</linearGradient>
<linearGradient id="paint8_linear" x1="18.8789" y1="31.9675" x2="32.1954" y2="35.7152" gradientUnits="userSpaceOnUse">
<stop stop-color="#E6A21A" stop-opacity="0.823"/>
<stop offset="1" stop-color="#E8A81F"/>
</linearGradient>
<linearGradient id="paint9_linear" x1="19.8334" y1="35.3415" x2="32.772" y2="37.3704" gradientUnits="userSpaceOnUse">
<stop stop-color="#E49E19" stop-opacity="0.882"/>
<stop offset="1" stop-color="#E5A21C"/>
</linearGradient>
<linearGradient id="paint10_linear" x1="22.0454" y1="36.066" x2="32.668" y2="36.8274" gradientUnits="userSpaceOnUse">
<stop stop-color="#E29B18" stop-opacity="0.941"/>
<stop offset="1" stop-color="#E39D1A"/>
</linearGradient>
<linearGradient id="paint11_linear" x1="22.924" y1="38.8964" x2="34.444" y2="38.8964" gradientUnits="userSpaceOnUse">
<stop stop-color="#E09717"/>
<stop offset="1" stop-color="#E09717"/>
</linearGradient>
<linearGradient id="paint12_linear" x1="1.822" y1="37.0771" x2="30.725" y2="37.0771" gradientUnits="userSpaceOnUse">
<stop stop-color="#EFAE13"/>
<stop offset="0.519" stop-color="#FCCC24" stop-opacity="0.536"/>
<stop offset="0.999" stop-color="#FCCB23"/>
</linearGradient>
<linearGradient id="paint13_linear" x1="1.64001" y1="37.2582" x2="30.625" y2="37.2582" gradientUnits="userSpaceOnUse">
<stop stop-color="#EEAC13"/>
<stop offset="0.519" stop-color="#F9C723" stop-opacity="0.583"/>
<stop offset="0.999" stop-color="#F9C621"/>
</linearGradient>
<linearGradient id="paint14_linear" x1="1.45906" y1="37.4396" x2="30.5881" y2="37.4396" gradientUnits="userSpaceOnUse">
<stop stop-color="#EDAB14"/>
<stop offset="0.519" stop-color="#F7C321" stop-opacity="0.629"/>
<stop offset="0.999" stop-color="#F7C220"/>
</linearGradient>
<linearGradient id="paint15_linear" x1="1.27705" y1="37.621" x2="30.557" y2="37.621" gradientUnits="userSpaceOnUse">
<stop stop-color="#ECAA14"/>
<stop offset="0.519" stop-color="#F5BF20" stop-opacity="0.675"/>
<stop offset="0.999" stop-color="#F5BE1F"/>
</linearGradient>
<linearGradient id="paint16_linear" x1="1.09496" y1="37.8024" x2="30.526" y2="37.8024" gradientUnits="userSpaceOnUse">
<stop stop-color="#EBA814"/>
<stop offset="0.519" stop-color="#F3BA1E" stop-opacity="0.722"/>
<stop offset="0.999" stop-color="#F3BA1D"/>
</linearGradient>
<linearGradient id="paint17_linear" x1="0.912958" y1="37.9849" x2="30.496" y2="37.9849" gradientUnits="userSpaceOnUse">
<stop stop-color="#EAA714"/>
<stop offset="0.519" stop-color="#F0B61D" stop-opacity="0.768"/>
<stop offset="0.999" stop-color="#F0B51C"/>
</linearGradient>
<linearGradient id="paint18_linear" x1="0.731982" y1="38.167" x2="30.465" y2="38.167" gradientUnits="userSpaceOnUse">
<stop stop-color="#E9A514"/>
<stop offset="0.519" stop-color="#EEB11B" stop-opacity="0.815"/>
<stop offset="0.999" stop-color="#EEB11A"/>
</linearGradient>
<linearGradient id="paint19_linear" x1="0.54995" y1="38.3485" x2="30.4339" y2="38.3485" gradientUnits="userSpaceOnUse">
<stop stop-color="#E8A414"/>
<stop offset="0.519" stop-color="#ECAD1A" stop-opacity="0.861"/>
<stop offset="0.999" stop-color="#ECAD19"/>
</linearGradient>
<linearGradient id="paint20_linear" x1="0.367946" y1="38.5323" x2="30.4039" y2="38.5323" gradientUnits="userSpaceOnUse">
<stop stop-color="#E7A315"/>
<stop offset="0.519" stop-color="#EAA918" stop-opacity="0.907"/>
<stop offset="0.999" stop-color="#EAA918"/>
</linearGradient>
<linearGradient id="paint21_linear" x1="0.186059" y1="38.7137" x2="30.3731" y2="38.7137" gradientUnits="userSpaceOnUse">
<stop stop-color="#E6A115"/>
<stop offset="0.519" stop-color="#E7A417" stop-opacity="0.954"/>
<stop offset="0.999" stop-color="#E7A416"/>
</linearGradient>
<radialGradient id="paint22_radial" cx="0" cy="0" r="1" gradientUnits="userSpaceOnUse" gradientTransform="translate(27.7431 37.4254) scale(6.616 4.22534)">
<stop stop-color="#FFE16E"/>
<stop offset="0.629" stop-color="#FFD226"/>
<stop offset="0.75" stop-color="#FDCD23"/>
<stop offset="0.899" stop-color="#F6BD1B"/>
<stop offset="0.999" stop-color="#F0AF13"/>
</radialGradient>
<radialGradient id="paint23_radial" cx="0" cy="0" r="1" gradientUnits="userSpaceOnUse" gradientTransform="translate(29.347 32.4345) scale(7.645 4.62143)">
<stop stop-color="#FFE16E"/>
<stop offset="0.629" stop-color="#FFD226"/>
<stop offset="0.75" stop-color="#FDCD23"/>
<stop offset="0.899" stop-color="#F6BD1B"/>
<stop offset="0.999" stop-color="#F0AF13"/>
</radialGradient>
<radialGradient id="paint24_radial" cx="0" cy="0" r="1" gradientUnits="userSpaceOnUse" gradientTransform="translate(30.301 27.0708) scale(8.281 4.95505)">
<stop stop-color="#FFE16E"/>
<stop offset="0.629" stop-color="#FFD226"/>
<stop offset="0.75" stop-color="#FDCD23"/>
<stop offset="0.899" stop-color="#F6BD1B"/>
<stop offset="0.999" stop-color="#F0AF13"/>
</radialGradient>
<radialGradient id="paint25_radial" cx="0" cy="0" r="1" gradientUnits="userSpaceOnUse" gradientTransform="translate(31.1602 19.3257) rotate(-4.7094) scale(7.30282 4.1746)">
<stop stop-color="#FFE16E"/>
<stop offset="0.629" stop-color="#FFD226"/>
<stop offset="0.75" stop-color="#FDCD23"/>
<stop offset="0.899" stop-color="#F6BD1B"/>
<stop offset="0.999" stop-color="#F0AF13"/>
</radialGradient>
<radialGradient id="paint26_radial" cx="0" cy="0" r="1" gradientUnits="userSpaceOnUse" gradientTransform="translate(13.4095 31.2408) rotate(-78.5677) scale(4.25194 6.19592)">
<stop offset="0.425" stop-color="#FFE16E"/>
<stop offset="1" stop-color="#FFE16E" stop-opacity="0.01"/>
</radialGradient>
<linearGradient id="paint27_linear" x1="18.1381" y1="9.36024" x2="7.52664" y2="19.6648" gradientUnits="userSpaceOnUse">
<stop stop-color="#FFDB53" stop-opacity="0.01"/>
<stop offset="0.605" stop-color="#F6C02D"/>
<stop offset="0.999" stop-color="#F2B416" stop-opacity="0.636"/>
</linearGradient>
<radialGradient id="paint28_radial" cx="0" cy="0" r="1" gradientUnits="userSpaceOnUse" gradientTransform="translate(12.6114 20.1106) rotate(49.6414) scale(3.82299 3.8831)">
<stop offset="0.425" stop-color="#FFE16E"/>
<stop offset="1" stop-color="#FFE16E" stop-opacity="0.01"/>
</radialGradient>
<radialGradient id="paint29_radial" cx="0" cy="0" r="1" gradientUnits="userSpaceOnUse" gradientTransform="translate(31.5258 19.2477) rotate(-90) scale(2.3173 5.3217)">
<stop offset="0.425" stop-color="#FFE16E"/>
<stop offset="1" stop-color="#FFE16E" stop-opacity="0.01"/>
</radialGradient>
<radialGradient id="paint30_radial" cx="0" cy="0" r="1" gradientUnits="userSpaceOnUse" gradientTransform="translate(30.5695 26.1229) rotate(-90) scale(2.03078 5.32171)">
<stop offset="0.425" stop-color="#FFE16E"/>
<stop offset="1" stop-color="#FFE16E" stop-opacity="0.01"/>
</radialGradient>
<radialGradient id="paint31_radial" cx="0" cy="0" r="1" gradientUnits="userSpaceOnUse" gradientTransform="translate(29.517 31.9628) rotate(-90) scale(2.03078 5.32171)">
<stop offset="0.425" stop-color="#FFE16E"/>
<stop offset="1" stop-color="#FFE16E" stop-opacity="0.01"/>
</radialGradient>
<radialGradient id="paint32_radial" cx="0" cy="0" r="1" gradientUnits="userSpaceOnUse" gradientTransform="translate(28.1888 36.8748) rotate(-90) scale(1.45514 3.81301)">
<stop offset="0.425" stop-color="#FFE16E"/>
<stop offset="1" stop-color="#FFE16E" stop-opacity="0.01"/>
</radialGradient>
</defs>
</svg>
