<svg width="15" height="15" viewBox="0 0 15 15" fill="none" xmlns="http://www.w3.org/2000/svg">
<path d="M1.00475 0.000437496C0.597825 0.000544363 0.231539 0.247193 0.078417 0.624208C-0.074705 1.00122 0.0158711 1.43342 0.307482 1.71723L5.60045 7.0102L0.307482 12.3032C0.0462446 12.554 -0.0589879 12.9264 0.0323693 13.2769C0.123727 13.6273 0.397398 13.901 0.747838 13.9923C1.09828 14.0837 1.47073 13.9785 1.72154 13.7172L7.01451 8.42426L12.3075 13.7172C12.5583 13.9785 12.9307 14.0837 13.2812 13.9924C13.6316 13.901 13.9053 13.6273 13.9967 13.2769C14.088 12.9264 13.9828 12.554 13.7215 12.3032L8.42858 7.0102L13.7215 1.71723C14.0173 1.42974 14.1062 0.990168 13.9455 0.610322C13.7847 0.230475 13.4073 -0.0117209 12.995 0.000437496C12.7352 0.00817863 12.4886 0.116758 12.3075 0.303172L7.01451 5.59614L1.72154 0.303172C1.53327 0.109639 1.27475 0.000453235 1.00475 0.000437496Z" fill="#B3B3B3"/>
</svg>
