<svg width="23" height="23" viewBox="0 0 23 23" fill="none" xmlns="http://www.w3.org/2000/svg">
<path d="M1.64724 0.000717476C0.980109 0.000892733 0.379598 0.405387 0.128561 1.02368C-0.122476 1.64197 0.02602 2.35076 0.504104 2.8162L9.1817 11.4965L0.504104 20.1767C0.075816 20.5881 -0.0967082 21.1989 0.0530682 21.7736C0.202845 22.3483 0.651517 22.7971 1.22605 22.9469C1.80058 23.0967 2.4112 22.9242 2.8224 22.4957L11.5 13.8155L20.1776 22.4957C20.5888 22.9242 21.1994 23.0967 21.7739 22.9469C22.3485 22.7971 22.7972 22.3483 22.9469 21.7736C23.0967 21.1989 22.9242 20.5881 22.4959 20.1767L13.8183 11.4965L22.4959 2.8162C22.9808 2.34472 23.1266 1.62384 22.863 1.0009C22.5995 0.37797 21.9806 -0.0192218 21.3047 0.000717476C20.8788 0.0134126 20.4745 0.191478 20.1776 0.49719L11.5 9.17745L2.8224 0.49719C2.51374 0.179804 2.0899 0.000743287 1.64724 0.000717476Z" fill="#AEAEAE"/>
</svg>
