<svg width="26" height="25" viewBox="0 0 26 25" fill="none" xmlns="http://www.w3.org/2000/svg">
<path fill-rule="evenodd" clip-rule="evenodd" d="M12.9788 0.131592C19.839 0.131592 25.3999 5.66893 25.3999 12.5C25.3999 19.3311 19.839 24.8684 12.9788 24.8684C6.1187 24.8684 0.557796 19.3311 0.557796 12.5C0.557796 5.66893 6.1187 0.131592 12.9788 0.131592ZM12.9788 2.60528C7.49123 2.60528 3.04201 7.03565 3.04201 12.5C3.04201 17.9644 7.49123 22.3948 12.9788 22.3948C18.4665 22.3948 22.9157 17.9644 22.9157 12.5C22.9157 7.03565 18.4665 2.60528 12.9788 2.60528ZM19.7037 12.5L13.8571 6.67816L12.1006 8.42713L14.9488 11.2632H6.76832V13.7369H14.9488L12.1006 16.5729L13.8571 18.3219L19.7037 12.5Z" fill="url(#paint0_linear)"/>
<defs>
<linearGradient id="paint0_linear" x1="12.9788" y1="-12.2368" x2="37.7155" y2="12.6051" gradientUnits="userSpaceOnUse">
<stop stop-color="#2084FF"/>
<stop offset="1" stop-color="#0052D4"/>
</linearGradient>
</defs>
</svg>
