<svg width="26" height="26" viewBox="0 0 26 26" fill="none" xmlns="http://www.w3.org/2000/svg">
<circle cx="13" cy="13" r="13" fill="#EAEAF7"/>
<mask id="mask0" mask-type="alpha" maskUnits="userSpaceOnUse" x="0" y="0" width="26" height="26">
<circle cx="13" cy="13" r="13" fill="white"/>
</mask>
<g mask="url(#mask0)">
<path fill-rule="evenodd" clip-rule="evenodd" d="M9.5 5C9.40044 5 9.30088 5.03785 9.22504 5.11319C9.07338 5.26387 9.07338 5.50885 9.22504 5.65953L10.2444 6.67223C9.08709 7.51594 8.33333 8.87349 8.33333 10.4091V17.3636C8.33333 17.7902 8.68178 18.1364 9.11111 18.1364H9.88889V20.8409C9.88889 21.4807 10.4116 22 11.0556 22C11.6996 22 12.2222 21.4807 12.2222 20.8409V18.1364H13.7778V20.8409C13.7778 21.4807 14.3004 22 14.9444 22C15.5884 22 16.1111 21.4807 16.1111 20.8409V18.1364H16.8889C17.3182 18.1364 17.6667 17.7902 17.6667 17.3636V10.4091C17.6667 8.87349 16.9129 7.51594 15.7556 6.67223L16.775 5.65953C16.9266 5.50808 16.9266 5.26465 16.775 5.11319C16.6233 4.96251 16.3767 4.96251 16.225 5.11319L15.072 6.2587C14.4471 5.95011 13.7453 5.77273 13 5.77273C12.2547 5.77273 11.5529 5.95011 10.928 6.2587L9.77496 5.11319C9.69912 5.03785 9.59956 5 9.5 5ZM13 7.31818C14.7158 7.31818 16.1111 8.70445 16.1111 10.4091H9.88889C9.88889 8.70445 11.2842 7.31818 13 7.31818ZM11.4444 9.63636V8.86364H12.2222V9.63636H11.4444ZM13.7778 8.86364V9.63636H14.5556V8.86364H13.7778ZM6 11.9545C6 11.528 6.34844 11.1818 6.77778 11.1818C7.20711 11.1818 7.55556 11.528 7.55556 11.9545V16.5909C7.55556 17.0175 7.20711 17.3636 6.77778 17.3636C6.34844 17.3636 6 17.0175 6 16.5909V11.9545ZM19.2222 11.1818C18.7929 11.1818 18.4444 11.528 18.4444 11.9545V16.5909C18.4444 17.0175 18.7929 17.3636 19.2222 17.3636C19.6516 17.3636 20 17.0175 20 16.5909V11.9545C20 11.528 19.6516 11.1818 19.2222 11.1818ZM16.1111 16.5909V11.9545H9.88889V16.5909H12.2222H16.1111Z" fill="#00BC1D"/>
</g>
</svg>
