<svg width="45" height="50" viewBox="0 0 45 50" fill="none" xmlns="http://www.w3.org/2000/svg">
<path fill-rule="evenodd" clip-rule="evenodd" d="M-0.000206478 23.8471C0.0130868 14.9473 8.15299 8.7356 15.9517 8.7356C23.7504 8.7356 31.8894 14.9606 31.9036 23.8471C31.9204 34.5194 15.9517 49.1851 15.9517 49.1851C15.9517 49.1851 -0.0161584 34.4971 -0.000206478 23.8471ZM15.9517 36.0817C22.2446 36.0817 27.3459 30.9804 27.3459 24.6875C27.3459 18.3947 22.2446 13.2933 15.9517 13.2933C9.65883 13.2933 4.55746 18.3947 4.55746 24.6875C4.55746 30.9804 9.65883 36.0817 15.9517 36.0817Z" fill="white"/>
<path d="M31.5411 -0.120504L31.3024 -1.60592L30.2488 -0.531958L20.3654 9.54269L20.148 9.76426V10.0746V15.4938L13.8989 21.665L13.3516 22.2055L13.8989 22.746L17.9506 26.7472L18.4844 27.2743L19.0181 26.7472L25.7015 20.1472H30.7911H31.1029L31.3248 19.9281L41.5529 9.82756L42.6255 8.76834L41.136 8.53649L32.7216 7.22671L31.5411 -0.120504Z" fill="white" stroke="#0B0F6B" stroke-width="1.51923"/>
<circle cx="15.952" cy="24.3077" r="5.69712" fill="white"/>
<path fill-rule="evenodd" clip-rule="evenodd" d="M17.7623 18.954L14.1899 22.2367L16.1659 17.8213L17.7623 18.954Z" fill="#0B0F6B"/>
</svg>
