<svg width="63" height="69" viewBox="0 0 63 69" fill="none" xmlns="http://www.w3.org/2000/svg">
<path fill-rule="evenodd" clip-rule="evenodd" d="M0.000395731 33.4543C0.0190632 20.9691 11.4498 12.2549 22.4014 12.2549C33.353 12.2549 44.7824 20.9878 44.8023 33.4543C44.826 48.426 22.4014 69.0001 22.4014 69.0001C22.4014 69.0001 -0.0220052 48.3948 0.000395731 33.4543ZM22.4014 50.6178C31.2383 50.6178 38.4021 43.4613 38.4021 34.6333C38.4021 25.8052 31.2383 18.6487 22.4014 18.6487C13.5644 18.6487 6.40065 25.8052 6.40065 34.6333C6.40065 43.4613 13.5644 50.6178 22.4014 50.6178Z" fill="url(#paint0_linear)"/>
<path d="M44.2921 -0.169217L43.9572 -2.25129L42.4796 -0.746649L28.6005 13.3867L28.2952 13.6976V14.1334V21.7353L19.5197 30.3927L18.7507 31.1513L19.5197 31.9099L25.2095 37.5231L25.9579 38.2614L26.7063 37.5231L36.092 28.2638H43.24H43.6771L43.9883 27.9568L58.3515 13.7871L59.8582 12.3007L57.7668 11.9755L45.9498 10.1379L44.2921 -0.169217Z" fill="#599FFF" stroke="white" stroke-width="2.13127"/>
<ellipse cx="22.4012" cy="34.1004" rx="8.00036" ry="7.99228" fill="#599FFF"/>
<path fill-rule="evenodd" clip-rule="evenodd" d="M24.9433 26.5899L19.9268 31.195L22.7016 25.0009L24.9433 26.5899Z" fill="white"/>
<defs>
<linearGradient id="paint0_linear" x1="22.4012" y1="-16.1177" x2="-32.7956" y2="27.4623" gradientUnits="userSpaceOnUse">
<stop stop-color="#2084FF"/>
<stop offset="1" stop-color="#0052D4"/>
</linearGradient>
</defs>
</svg>
