<svg width="56" height="56" viewBox="0 0 56 56" fill="none" xmlns="http://www.w3.org/2000/svg">
<path fill-rule="evenodd" clip-rule="evenodd" d="M0 28C0 12.5356 12.5356 0 28 0C43.4644 0 56 12.5356 56 28C56 43.4644 43.4644 56 28 56C12.5356 56 0 43.4644 0 28ZM24.3796 41.1796L43.9796 21.5796C45.0744 20.4848 45.0744 18.7152 43.9796 17.6204C42.8848 16.5256 41.1152 16.5256 40.0204 17.6204L22.4 35.2408L15.9796 28.8204C14.8848 27.7256 13.1152 27.7256 12.0204 28.8204C10.9256 29.9152 10.9256 31.6848 12.0204 32.7796L20.4204 41.1796C20.9664 41.7256 21.6832 42 22.4 42C23.1168 42 23.8336 41.7256 24.3796 41.1796Z" fill="#4ACB42"/>
</svg>
