<svg width="56" height="56" viewBox="0 0 56 56" fill="none" xmlns="http://www.w3.org/2000/svg">
<path fill-rule="evenodd" clip-rule="evenodd" d="M0 28C0 12.516 12.516 0 28 0C43.484 0 56 12.516 56 28C56 43.484 43.484 56 28 56C12.516 56 0 43.484 0 28ZM41.1796 41.1796C42.2744 40.0848 42.2744 38.3152 41.1796 37.2204L31.9592 28L41.1796 18.7796C42.2744 17.6848 42.2744 15.9152 41.1796 14.8204C40.0848 13.7256 38.3152 13.7256 37.2204 14.8204L28 24.0408L18.7796 14.8204C17.6848 13.7256 15.9152 13.7256 14.8204 14.8204C13.7256 15.9152 13.7256 17.6848 14.8204 18.7796L24.0408 28L14.8204 37.2204C13.7256 38.3152 13.7256 40.0848 14.8204 41.1796C15.3664 41.7256 16.0832 42 16.8 42C17.5168 42 18.2336 41.7256 18.7796 41.1796L28 31.9592L37.2204 41.1796C37.7664 41.7256 38.4832 42 39.2 42C39.9168 42 40.6336 41.7256 41.1796 41.1796Z" fill="#E53838"/>
</svg>
