<svg width="75" height="75" viewBox="0 0 75 75" fill="none" xmlns="http://www.w3.org/2000/svg">
<path fill-rule="evenodd" clip-rule="evenodd" d="M0 37.5C0 16.7887 16.7887 0 37.5 0C58.2113 0 75 16.7887 75 37.5C75 58.2113 58.2113 75 37.5 75C16.7887 75 0 58.2113 0 37.5ZM32.6512 55.1512L58.9012 28.9012C60.3675 27.435 60.3675 25.065 58.9012 23.5987C57.435 22.1325 55.065 22.1325 53.5987 23.5987L30 47.1975L21.4012 38.5987C19.935 37.1325 17.565 37.1325 16.0987 38.5987C14.6325 40.065 14.6325 42.435 16.0987 43.9012L27.3488 55.1512C28.08 55.8825 29.04 56.25 30 56.25C30.96 56.25 31.92 55.8825 32.6512 55.1512Z" fill="#4ACB42"/>
</svg>
