<svg width="69" height="69" viewBox="0 0 69 69" fill="none" xmlns="http://www.w3.org/2000/svg">
<path d="M0 34.493C0 15.4461 15.4492 0 34.5 0C53.5508 0 69 15.4461 69 34.493C69 53.54 53.5508 68.9861 34.5 68.9861C15.4492 68.9861 0 53.54 0 34.493Z" fill="url(#paint0_linear)"/>
<path d="M46.1947 12.7906H23C18.4806 12.7906 16.1723 15.0846 16.1723 19.617V63.7169C16.7285 64.0645 17.2987 64.412 17.8827 64.7318V21.4939H51.1451V64.704C51.7848 64.3564 52.4105 63.9672 53.0224 63.5779V19.617C53.0224 15.0846 50.7279 12.7906 46.1947 12.7906Z" fill="#202121"/>
<path d="M51.1451 64.7041V21.4939H17.8827V64.7319C22.8192 67.4429 28.4788 69 34.5 69C40.535 68.9861 46.2086 67.429 51.1451 64.7041Z" fill="#294957"/>
<path d="M38.922 17.907C38.922 18.3519 38.5604 18.6994 38.1294 18.6994H31.0792C30.6342 18.6994 30.2866 18.338 30.2866 17.907C30.2866 17.4621 30.6481 17.1145 31.0792 17.1145H38.1294C38.5604 17.1145 38.922 17.4621 38.922 17.907Z" fill="black"/>
<path d="M63.1179 45.1427C63.1179 46.9222 61.6717 48.3681 59.8918 48.3681H35.3899C33.61 48.3681 32.1638 46.9222 32.1638 45.1427V30.8783C32.1638 29.0987 33.61 27.6528 35.3899 27.6528H59.8918C61.6717 27.6528 63.1179 29.0987 63.1179 30.8783V45.1427Z" fill="white"/>
<path d="M40.0762 52.7197C39.8259 52.97 39.4087 52.97 39.1584 52.7197L36.0574 48.3542C35.8071 48.104 35.8071 47.6869 36.0574 47.4366H43.1632C43.4135 47.6869 43.4135 48.104 43.1632 48.3542L40.0762 52.7197Z" fill="white"/>
<path fill-rule="evenodd" clip-rule="evenodd" d="M58.1675 33.5616C58.1675 34.1455 57.6947 34.6321 57.0968 34.6321H39.6173C39.0333 34.6321 38.5466 34.1594 38.5466 33.5616C38.5466 32.9777 39.0194 32.4911 39.6173 32.4911H57.1107C57.6947 32.4911 58.1675 32.9777 58.1675 33.5616ZM58.1675 37.8298C58.1675 38.4137 57.6947 38.9003 57.0968 38.9003H39.6173C39.0333 38.9003 38.5466 38.4276 38.5466 37.8298C38.5466 37.2459 39.0194 36.7593 39.6173 36.7593H57.1107C57.6947 36.7593 58.1675 37.2459 58.1675 37.8298ZM57.0968 43.1685C57.6947 43.1685 58.1675 42.6819 58.1675 42.098C58.1675 41.5002 57.6947 41.0275 57.1107 41.0275H39.6173C39.0194 41.0275 38.5466 41.5141 38.5466 42.098C38.5466 42.6958 39.0333 43.1685 39.6173 43.1685H57.0968Z" fill="#B7CAC4"/>
<defs>
<linearGradient id="paint0_linear" x1="0" y1="0" x2="0" y2="68.9861" gradientUnits="userSpaceOnUse">
<stop stop-color="#95F58C"/>
<stop offset="1" stop-color="#5CE753"/>
</linearGradient>
</defs>
</svg>
