<svg width="26" height="26" viewBox="0 0 26 26" fill="none" xmlns="http://www.w3.org/2000/svg">
<path fill-rule="evenodd" clip-rule="evenodd" d="M0 13C0 5.8201 5.8201 0 13 0C20.1799 0 26 5.8201 26 13C26 20.1799 20.1799 26 13 26C5.8201 26 0 20.1799 0 13ZM11.3191 19.1191L20.4191 10.0191C20.9274 9.5108 20.9274 8.6892 20.4191 8.1809C19.9108 7.6726 19.0892 7.6726 18.5809 8.1809L10.4 16.3618L7.4191 13.3809C6.9108 12.8726 6.0892 12.8726 5.5809 13.3809C5.0726 13.8892 5.0726 14.7108 5.5809 15.2191L9.4809 19.1191C9.7344 19.3726 10.0672 19.5 10.4 19.5C10.7328 19.5 11.0656 19.3726 11.3191 19.1191Z" fill="#4ACB42"/>
</svg>
