<svg width="15" height="11" viewBox="0 0 15 11" fill="none" xmlns="http://www.w3.org/2000/svg">
<path fill-rule="evenodd" clip-rule="evenodd" d="M7.50113 0C2.82592 0 0.606046 4.04157 0.0674899 5.19519C-0.0224966 5.38769 -0.0224966 5.61097 0.0674899 5.80347C0.606046 6.95778 2.82592 11 7.50113 11C12.16 11 14.3813 6.98702 14.9294 5.8169C15.0235 5.61546 15.0235 5.38454 14.9294 5.1831C14.3813 4.01298 12.16 0 7.50113 0ZM7.50113 2.0625C9.38335 2.0625 10.9097 3.60181 10.9097 5.5C10.9097 7.39819 9.38335 8.9375 7.50113 8.9375C5.61891 8.9375 4.09255 7.39819 4.09255 5.5C4.09255 3.60181 5.61891 2.0625 7.50113 2.0625ZM5.45598 5.5C5.45598 4.36091 6.37162 3.4375 7.50113 3.4375C8.63063 3.4375 9.54628 4.36091 9.54628 5.5C9.54628 6.63909 8.63063 7.5625 7.50113 7.5625C6.37162 7.5625 5.45598 6.63909 5.45598 5.5Z" fill="#C4C6D8"/>
</svg>
